<svg width="290" height="65" viewBox="0 0 290 65" fill="none" xmlns="http://www.w3.org/2000/svg">
<path d="M11.1889 10.0442V9.34193H23.5823V49.2301C23.5823 52.9287 22.8396 55.41 21.3542 56.674C19.8689 57.8913 17.6177 58.4999 14.6006 58.4999C11.6299 58.4999 8.98412 58.0551 6.66327 57.1656L6.87215 56.6038C9.10016 57.4933 11.3978 57.9381 13.7651 57.9381C15.3432 57.9381 16.3876 57.2593 16.8982 55.9016C17.4552 54.5439 17.7337 52.3435 17.7337 49.3003V10.0442H11.1889Z" fill="black"/>
<path d="M50.5251 58.7808C45.6513 58.7808 41.6827 57.3763 38.6192 54.5673C35.5557 51.7582 34.0239 47.4277 34.0239 41.5755C34.0239 35.7234 35.6021 31.1821 38.7584 27.9517C41.9612 24.7214 45.9995 23.1062 50.8732 23.1062C55.7934 23.1062 59.7853 24.5107 62.8488 27.3197C65.9123 30.1287 67.4441 34.4593 67.4441 40.3115C67.4441 46.1636 65.8427 50.7049 62.6399 53.9352C59.4836 57.1656 55.4453 58.7808 50.5251 58.7808ZM51.0125 23.668C47.4848 23.668 44.5605 25.2598 42.2397 28.4433C39.9188 31.5801 38.7584 35.9809 38.7584 41.6457C38.7584 47.2638 39.826 51.4305 41.9612 54.1459C44.0964 56.8613 46.9278 58.219 50.4555 58.219C53.9832 58.219 56.9075 56.6506 59.2283 53.5139C61.5492 50.3303 62.7096 45.9295 62.7096 40.3115C62.7096 34.6466 61.642 30.4565 59.5068 27.7411C57.3716 25.0257 54.5402 23.668 51.0125 23.668Z" fill="black"/>
<path d="M103.652 58.4999C101.749 58.4999 100.287 58.0785 99.2657 57.2358C98.2909 56.3931 97.7803 55.5504 97.7339 54.7077L97.6643 53.5139V31.463C97.6643 27.7645 96.6895 25.4002 94.74 24.3702C93.8117 23.9021 92.628 23.668 91.1891 23.668C88.3112 23.668 85.7119 24.8618 83.3911 27.2495C81.1166 29.5903 79.9794 31.6971 79.9794 33.5698V58.4999H75.1056V5.90088H79.9794V31.3928C80.7221 29.3797 82.1378 27.507 84.2266 25.7747C86.3153 23.9957 88.6594 23.1062 91.2587 23.1062C95.7612 23.1062 98.7551 23.9021 100.24 25.4938C101.772 27.0388 102.538 29.0519 102.538 31.5332V53.5139C102.538 54.8716 102.793 55.925 103.304 56.674C103.861 57.3763 104.395 57.7508 104.905 57.7976L105.741 57.9381H107.899V58.4999H103.652Z" fill="black"/>
<path d="M143.417 58.4999C141.514 58.4999 140.052 58.0785 139.031 57.2358C138.056 56.3931 137.546 55.5504 137.499 54.7077L137.43 53.5139V31.463C137.43 27.7645 136.478 25.4002 134.575 24.3702C133.6 23.9021 132.393 23.668 130.954 23.668C127.984 23.668 125.315 24.8618 122.948 27.2495C120.58 29.5903 119.397 31.6971 119.397 33.5698V58.4999H114.523V23.3871H119.397V31.3928C120.186 29.3797 121.648 27.507 123.783 25.7747C125.918 23.9957 128.262 23.1062 130.815 23.1062C133.368 23.1062 135.434 23.3637 137.012 23.8786C138.636 24.3468 139.82 25.0257 140.563 25.9152C141.723 27.3665 142.303 29.2392 142.303 31.5332V53.5139C142.303 54.8716 142.559 55.925 143.069 56.674C143.626 57.3763 144.183 57.7508 144.74 57.7976L145.506 57.9381H147.665V58.4999H143.417Z" fill="black"/>
<path d="M174.737 9.89045C176.779 9.79682 178.775 9.75 180.724 9.75C182.72 9.75 184.809 9.96068 186.991 10.382C189.219 10.8034 191.4 11.5993 193.536 12.7697C195.717 13.8933 197.551 15.3681 199.036 17.1939C200.568 18.973 201.798 21.3372 202.726 24.2867C203.654 27.2362 204.119 30.8177 204.119 35.0312C204.119 39.2448 203.422 43.037 202.03 46.4078C200.684 49.7318 198.827 52.2833 196.46 54.0624C191.865 57.5269 186.318 59.2591 179.819 59.2591C177.545 59.2591 175.154 59.1655 172.648 58.9782H169.167V9.89045H174.737ZM174.946 58.4164C175.92 58.51 177.15 58.5568 178.636 58.5568C180.121 58.5568 181.235 58.5334 181.978 58.4866C182.72 58.4398 183.742 58.2525 185.041 57.9248C186.341 57.5503 187.548 57.0587 188.662 56.4501C189.776 55.8414 190.936 54.9519 192.143 53.7815C193.396 52.5643 194.464 51.1363 195.346 49.4977C197.342 45.6587 198.34 40.6493 198.34 34.4694C198.34 30.0686 197.806 26.2764 196.738 23.0929C195.671 19.8625 194.441 17.4748 193.048 15.9299C191.702 14.3849 190.054 13.1676 188.105 12.2781C186.155 11.3418 184.6 10.8034 183.44 10.6629C182.279 10.5225 180.933 10.4523 179.402 10.4523C177.87 10.4523 176.385 10.5225 174.946 10.6629V58.4164Z" fill="#69AE96"/>
<path d="M229.676 59.2591C224.802 59.2591 220.834 57.8546 217.77 55.0456C214.707 52.2365 213.175 47.9059 213.175 42.0538C213.175 36.2017 214.753 31.6604 217.909 28.43C221.112 25.1996 225.15 23.5845 230.024 23.5845C234.944 23.5845 238.936 24.989 242 27.798C245.063 30.607 246.595 34.9376 246.595 40.7897C246.595 46.6419 244.994 51.1831 241.791 54.4135C238.635 57.6439 234.596 59.2591 229.676 59.2591ZM230.163 24.1463C226.636 24.1463 223.712 25.738 221.391 28.9216C219.07 32.0584 217.909 36.4592 217.909 42.124C217.909 47.7421 218.977 51.9088 221.112 54.6242C223.247 57.3396 226.079 58.6973 229.606 58.6973C233.134 58.6973 236.058 57.1289 238.379 53.9922C240.7 50.8086 241.861 46.4078 241.861 40.7897C241.861 35.1249 240.793 30.9347 238.658 28.2194C236.523 25.504 233.691 24.1463 230.163 24.1463Z" fill="#69AE96"/>
<path d="M259.655 41.8431C259.655 47.6485 260.653 51.9088 262.649 54.6242C264.691 57.3396 267.36 58.6973 270.656 58.6973C275.297 58.6973 279.428 57.995 283.049 56.5905L283.258 57.0821C279.544 58.5334 275.344 59.2591 270.656 59.2591C266.014 59.2591 262.231 57.8546 259.307 55.0456C256.382 52.2365 254.92 47.9059 254.92 42.0538C254.92 36.2017 256.452 31.6604 259.515 28.43C262.579 25.1996 266.478 23.5845 271.213 23.5845C275.019 23.5845 278.222 24.7315 280.821 27.0255C283.42 29.3196 284.72 32.7138 284.72 37.2082C284.72 37.4423 284.72 37.6764 284.72 37.9105H259.864C259.724 39.1746 259.655 40.4854 259.655 41.8431ZM279.985 37.3487C279.939 32.8542 279.08 29.5302 277.409 27.3766C275.738 25.2231 273.58 24.1463 270.934 24.1463C268.288 24.1463 265.921 25.3167 263.832 27.6575C261.79 29.9984 260.49 33.2288 259.933 37.3487H279.985Z" fill="#69AE96"/>
</svg>
